<svg width="565" height="482" viewBox="0 0 565 482" fill="none" xmlns="http://www.w3.org/2000/svg">
<path d="M235.317 51.9808V72.8338L217.354 83.5622L199.29 72.8338L181.226 62.4976V20.8135L199.554 9.53445L199.294 31.2643L181.23 41.6049L199.325 51.9852V72.8382L217.389 62.2641L235.352 72.8382L253.451 62.502V41.6049L235.295 31.2643" stroke="#E2E8F0" stroke-linecap="round" stroke-linejoin="round"/>
<path d="M199.312 51.9805L217.332 41.5694L199.268 31.264" stroke="#E2E8F0" stroke-linecap="round" stroke-linejoin="round"/>
<path d="M217.333 62.264V41.5563L235.295 31.251V10.3979L253.36 20.8046V41.596L235.295 51.9762L217.311 41.5651V20.69L235.295 10.4111L217.311 0L199.529 9.53874L217.311 20.6944" stroke="#E2E8F0" stroke-linecap="round" stroke-linejoin="round"/>
<path d="M307.317 51.9808V72.8338L289.354 83.5622L271.29 72.8338L253.226 62.4976V20.8135L271.554 9.53445L271.294 31.2643L253.23 41.6049L271.325 51.9852V72.8382L289.389 62.2641L307.352 72.8382L325.451 62.502V41.6049L307.295 31.2643" stroke="#E2E8F0" stroke-linecap="round" stroke-linejoin="round"/>
<path d="M271.312 51.9805L289.332 41.5694L271.268 31.264" stroke="#E2E8F0" stroke-linecap="round" stroke-linejoin="round"/>
<path d="M289.333 62.264V41.5563L307.295 31.251V10.3979L325.36 20.8046V41.596L307.295 51.9762L289.311 41.5651V20.69L307.295 10.4111L289.311 0L271.529 9.53874L289.311 20.6944" stroke="#E2E8F0" stroke-linecap="round" stroke-linejoin="round"/>
<path d="M271.317 114.981V135.834L253.354 146.562L235.29 135.834L217.226 125.498V83.8135L235.554 72.5345L235.294 94.2643L217.23 104.605L235.325 114.985V135.838L253.389 125.264L271.352 135.838L289.451 125.502V104.605L271.295 94.2643" stroke="#E2E8F0" stroke-linecap="round" stroke-linejoin="round"/>
<path d="M235.312 114.981L253.332 104.569L235.268 94.264" stroke="#E2E8F0" stroke-linecap="round" stroke-linejoin="round"/>
<path d="M253.333 125.264V104.556L271.295 94.251V73.3979L289.36 83.8046V104.596L271.295 114.976L253.311 104.565V83.69L271.295 73.4111L253.311 63L235.529 72.5387L253.311 83.6944" stroke="#E2E8F0" stroke-linecap="round" stroke-linejoin="round"/>
<path d="M379.543 51.9808V72.8338L361.58 83.5622L343.516 72.8338L325.451 62.4976V20.8135L343.78 9.53445L343.52 31.2643L325.456 41.6049L343.551 51.9852V72.8382L361.615 62.2641L379.578 72.8382L397.677 62.502V41.6049L379.521 31.2643" stroke="#E2E8F0" stroke-linecap="round" stroke-linejoin="round"/>
<path d="M343.538 51.9805L361.558 41.5694L343.494 31.264" stroke="#E2E8F0" stroke-linecap="round" stroke-linejoin="round"/>
<path d="M361.558 62.264V41.5563L379.521 31.251V10.3979L397.585 20.8046V41.596L379.521 51.9762L361.536 41.5651V20.69L379.521 10.4111L361.536 0L343.754 9.53874L361.536 20.6944" stroke="#E2E8F0" stroke-linecap="round" stroke-linejoin="round"/>
<path d="M451.543 51.9808V72.8338L433.58 83.5622L415.516 72.8338L397.451 62.4976V20.8135L415.78 9.53445L415.52 31.2643L397.456 41.6049L415.551 51.9852V72.8382L433.615 62.2641L451.578 72.8382L469.677 62.502V41.6049L451.521 31.2643" stroke="#E2E8F0" stroke-linecap="round" stroke-linejoin="round"/>
<path d="M415.538 51.9805L433.558 41.5694L415.494 31.264" stroke="#E2E8F0" stroke-linecap="round" stroke-linejoin="round"/>
<path d="M433.558 62.264V41.5563L451.521 31.251V10.3979L469.585 20.8046V41.596L451.521 51.9762L433.536 41.5651V20.69L451.521 10.4111L433.536 0L415.754 9.53874L433.536 20.6944" stroke="#E2E8F0" stroke-linecap="round" stroke-linejoin="round"/>
<path d="M415.543 114.981V135.834L397.58 146.562L379.516 135.834L361.451 125.498V83.8135L379.78 72.5345L379.52 94.2643L361.456 104.605L379.551 114.985V135.838L397.615 125.264L415.578 135.838L433.677 125.502V104.605L415.521 94.2643" stroke="#E2E8F0" stroke-linecap="round" stroke-linejoin="round"/>
<path d="M379.538 114.981L397.558 104.569L379.494 94.264" stroke="#E2E8F0" stroke-linecap="round" stroke-linejoin="round"/>
<path d="M397.558 125.264V104.556L415.521 94.251V73.3979L433.585 83.8046V104.596L415.521 114.976L397.536 104.565V83.69L415.521 73.4111L397.536 63L379.754 72.5387L397.536 83.6944" stroke="#E2E8F0" stroke-linecap="round" stroke-linejoin="round"/>
<path d="M523.768 51.9808V72.8338L505.805 83.5622L487.741 72.8338L469.677 62.4976V20.8135L488.006 9.53445L487.746 31.2643L469.682 41.6049L487.777 51.9852V72.8382L505.841 62.2641L523.804 72.8382L541.903 62.502V41.6049L523.746 31.2643" stroke="#E2E8F0" stroke-linecap="round" stroke-linejoin="round"/>
<path d="M487.763 51.9805L505.783 41.5694L487.719 31.264" stroke="#E2E8F0" stroke-linecap="round" stroke-linejoin="round"/>
<path d="M505.784 62.264V41.5563L523.747 31.251V10.3979L541.811 20.8046V41.596L523.747 51.9762L505.762 41.5651V20.69L523.747 10.4111L505.762 0L487.98 9.53874L505.762 20.6944" stroke="#E2E8F0" stroke-linecap="round" stroke-linejoin="round"/>
<path d="M595.768 51.9808V72.8338L577.805 83.5622L559.741 72.8338L541.677 62.4976V20.8135L560.006 9.53445L559.746 31.2643L541.682 41.6049L559.777 51.9852V72.8382L577.841 62.2641L595.804 72.8382L613.903 62.502V41.6049L595.746 31.2643" stroke="#E2E8F0" stroke-linecap="round" stroke-linejoin="round"/>
<path d="M559.763 51.9805L577.783 41.5694L559.719 31.264" stroke="#E2E8F0" stroke-linecap="round" stroke-linejoin="round"/>
<path d="M577.784 62.264V41.5563L595.747 31.251V10.3979L613.811 20.8046V41.596L595.747 51.9762L577.762 41.5651V20.69L595.747 10.4111L577.762 0L559.98 9.53874L577.762 20.6944" stroke="#E2E8F0" stroke-linecap="round" stroke-linejoin="round"/>
<path d="M559.768 114.981V135.834L541.805 146.562L523.741 135.834L505.677 125.498V83.8135L524.006 72.5345L523.746 94.2643L505.682 104.605L523.777 114.985V135.838L541.841 125.264L559.804 135.838L577.903 125.502V104.605L559.746 94.2643" stroke="#E2E8F0" stroke-linecap="round" stroke-linejoin="round"/>
<path d="M523.763 114.981L541.783 104.569L523.719 94.264" stroke="#E2E8F0" stroke-linecap="round" stroke-linejoin="round"/>
<path d="M541.784 125.264V104.556L559.747 94.251V73.3979L577.811 83.8046V104.596L559.747 114.976L541.762 104.565V83.69L559.747 73.4111L541.762 63L523.98 72.5387L541.762 83.6944" stroke="#E2E8F0" stroke-linecap="round" stroke-linejoin="round"/>
<path d="M235.317 177.543V198.396L217.354 209.124L199.29 198.396L181.226 188.06V146.376L199.554 135.097L199.294 156.826L181.23 167.167L199.325 177.547V198.4L217.389 187.826L235.352 198.4L253.451 188.064V167.167L235.295 156.826" stroke="#E2E8F0" stroke-linecap="round" stroke-linejoin="round"/>
<path d="M199.312 177.543L217.332 167.132L199.268 156.826" stroke="#E2E8F0" stroke-linecap="round" stroke-linejoin="round"/>
<path d="M217.333 187.826V167.119L235.295 156.813V135.96L253.36 146.367V167.158L235.295 177.538L217.311 167.127V146.252L235.295 135.973L217.311 125.562L199.529 135.101L217.311 146.257" stroke="#E2E8F0" stroke-linecap="round" stroke-linejoin="round"/>
<path d="M307.317 177.543V198.396L289.354 209.124L271.29 198.396L253.226 188.06V146.376L271.554 135.097L271.294 156.826L253.23 167.167L271.325 177.547V198.4L289.389 187.826L307.352 198.4L325.451 188.064V167.167L307.295 156.826" stroke="#E2E8F0" stroke-linecap="round" stroke-linejoin="round"/>
<path d="M271.312 177.543L289.332 167.132L271.268 156.826" stroke="#E2E8F0" stroke-linecap="round" stroke-linejoin="round"/>
<path d="M289.333 187.826V167.119L307.295 156.813V135.96L325.36 146.367V167.158L307.295 177.538L289.311 167.127V146.252L307.295 135.973L289.311 125.562L271.529 135.101L289.311 146.257" stroke="#E2E8F0" stroke-linecap="round" stroke-linejoin="round"/>
<path d="M271.317 240.543V261.396L253.354 272.124L235.29 261.396L217.226 251.06V209.376L235.554 198.097L235.294 219.826L217.23 230.167L235.325 240.547V261.4L253.389 250.826L271.352 261.4L289.451 251.064V230.167L271.295 219.826" stroke="#E2E8F0" stroke-linecap="round" stroke-linejoin="round"/>
<path d="M235.312 240.543L253.332 230.132L235.268 219.826" stroke="#E2E8F0" stroke-linecap="round" stroke-linejoin="round"/>
<path d="M253.333 250.826V230.119L271.295 219.813V198.96L289.36 209.367V230.158L271.295 240.538L253.311 230.127V209.252L271.295 198.973L253.311 188.562L235.529 198.101L253.311 209.257" stroke="#E2E8F0" stroke-linecap="round" stroke-linejoin="round"/>
<path d="M379.543 177.543V198.396L361.58 209.124L343.516 198.396L325.451 188.06V146.376L343.78 135.097L343.52 156.826L325.456 167.167L343.551 177.547V198.4L361.615 187.826L379.578 198.4L397.677 188.064V167.167L379.521 156.826" stroke="#E2E8F0" stroke-linecap="round" stroke-linejoin="round"/>
<path d="M343.538 177.543L361.558 167.132L343.494 156.826" stroke="#E2E8F0" stroke-linecap="round" stroke-linejoin="round"/>
<path d="M361.558 187.826V167.119L379.521 156.813V135.96L397.585 146.367V167.158L379.521 177.538L361.536 167.127V146.252L379.521 135.973L361.536 125.562L343.754 135.101L361.536 146.257" stroke="#E2E8F0" stroke-linecap="round" stroke-linejoin="round"/>
<path d="M451.543 177.543V198.396L433.58 209.124L415.516 198.396L397.451 188.06V146.376L415.78 135.097L415.52 156.826L397.456 167.167L415.551 177.547V198.4L433.615 187.826L451.578 198.4L469.677 188.064V167.167L451.521 156.826" stroke="#E2E8F0" stroke-linecap="round" stroke-linejoin="round"/>
<path d="M415.538 177.543L433.558 167.132L415.494 156.826" stroke="#E2E8F0" stroke-linecap="round" stroke-linejoin="round"/>
<path d="M433.558 187.826V167.119L451.521 156.813V135.96L469.585 146.367V167.158L451.521 177.538L433.536 167.127V146.252L451.521 135.973L433.536 125.562L415.754 135.101L433.536 146.257" stroke="#E2E8F0" stroke-linecap="round" stroke-linejoin="round"/>
<path d="M415.543 240.543V261.396L397.58 272.124L379.516 261.396L361.451 251.06V209.376L379.78 198.097L379.52 219.826L361.456 230.167L379.551 240.547V261.4L397.615 250.826L415.578 261.4L433.677 251.064V230.167L415.521 219.826" stroke="#E2E8F0" stroke-linecap="round" stroke-linejoin="round"/>
<path d="M379.538 240.543L397.558 230.132L379.494 219.826" stroke="#E2E8F0" stroke-linecap="round" stroke-linejoin="round"/>
<path d="M397.558 250.826V230.119L415.521 219.813V198.96L433.585 209.367V230.158L415.521 240.538L397.536 230.127V209.252L415.521 198.973L397.536 188.562L379.754 198.101L397.536 209.257" stroke="#E2E8F0" stroke-linecap="round" stroke-linejoin="round"/>
<path d="M523.768 177.543V198.396L505.805 209.124L487.741 198.396L469.677 188.06V146.376L488.006 135.097L487.746 156.826L469.682 167.167L487.777 177.547V198.4L505.841 187.826L523.804 198.4L541.903 188.064V167.167L523.746 156.826" stroke="#E2E8F0" stroke-linecap="round" stroke-linejoin="round"/>
<path d="M487.763 177.543L505.783 167.132L487.719 156.826" stroke="#E2E8F0" stroke-linecap="round" stroke-linejoin="round"/>
<path d="M505.784 187.826V167.119L523.747 156.813V135.96L541.811 146.367V167.158L523.747 177.538L505.762 167.127V146.252L523.747 135.973L505.762 125.562L487.98 135.101L505.762 146.257" stroke="#E2E8F0" stroke-linecap="round" stroke-linejoin="round"/>
<path d="M595.768 177.543V198.396L577.805 209.124L559.741 198.396L541.677 188.06V146.376L560.006 135.097L559.746 156.826L541.682 167.167L559.777 177.547V198.4L577.841 187.826L595.804 198.4L613.903 188.064V167.167L595.746 156.826" stroke="#E2E8F0" stroke-linecap="round" stroke-linejoin="round"/>
<path d="M559.763 177.543L577.783 167.132L559.719 156.826" stroke="#E2E8F0" stroke-linecap="round" stroke-linejoin="round"/>
<path d="M577.784 187.826V167.119L595.747 156.813V135.96L613.811 146.367V167.158L595.747 177.538L577.762 167.127V146.252L595.747 135.973L577.762 125.562L559.98 135.101L577.762 146.257" stroke="#E2E8F0" stroke-linecap="round" stroke-linejoin="round"/>
<path d="M559.768 240.543V261.396L541.805 272.124L523.741 261.396L505.677 251.06V209.376L524.006 198.097L523.746 219.826L505.682 230.167L523.777 240.547V261.4L541.841 250.826L559.804 261.4L577.903 251.064V230.167L559.746 219.826" stroke="#E2E8F0" stroke-linecap="round" stroke-linejoin="round"/>
<path d="M523.763 240.543L541.783 230.132L523.719 219.826" stroke="#E2E8F0" stroke-linecap="round" stroke-linejoin="round"/>
<path d="M541.784 250.826V230.119L559.747 219.813V198.96L577.811 209.367V230.158L559.747 240.538L541.762 230.127V209.252L559.747 198.973L541.762 188.562L523.98 198.101L541.762 209.257" stroke="#E2E8F0" stroke-linecap="round" stroke-linejoin="round"/>
<path d="M91.0911 303.105V323.958L73.1283 334.687L55.0642 323.958L37 313.622V271.938L55.3285 260.659L55.0686 282.389L37.0044 292.729L55.0994 303.11V323.963L73.1635 313.388L91.1264 323.963L109.226 313.626V292.729L91.0691 282.389" stroke="#E2E8F0" stroke-linecap="round" stroke-linejoin="round"/>
<path d="M55.0862 303.105L73.1063 292.694L55.0421 282.388" stroke="#E2E8F0" stroke-linecap="round" stroke-linejoin="round"/>
<path d="M73.107 313.388V292.681L91.0698 282.375V261.522L109.134 271.929V292.72L91.0698 303.101L73.085 292.689V271.814L91.0698 261.535L73.085 251.124L55.3028 260.663L73.085 271.819" stroke="#E2E8F0" stroke-linecap="round" stroke-linejoin="round"/>
<path d="M163.091 303.105V323.958L145.128 334.687L127.064 323.958L109 313.622V271.938L127.329 260.659L127.069 282.389L109.004 292.729L127.099 303.11V323.963L145.164 313.388L163.126 323.963L181.226 313.626V292.729L163.069 282.389" stroke="#E2E8F0" stroke-linecap="round" stroke-linejoin="round"/>
<path d="M127.086 303.105L145.106 292.694L127.042 282.388" stroke="#E2E8F0" stroke-linecap="round" stroke-linejoin="round"/>
<path d="M145.107 313.388V292.681L163.07 282.375V261.522L181.134 271.929V292.72L163.07 303.101L145.085 292.689V271.814L163.07 261.535L145.085 251.124L127.303 260.663L145.085 271.819" stroke="#E2E8F0" stroke-linecap="round" stroke-linejoin="round"/>
<path d="M127.091 366.105V386.958L109.128 397.687L91.0642 386.958L73 376.622V334.938L91.3285 323.659L91.0686 345.389L73.0044 355.729L91.0994 366.11V386.963L109.164 376.388L127.126 386.963L145.226 376.626V355.729L127.069 345.389" stroke="#E2E8F0" stroke-linecap="round" stroke-linejoin="round"/>
<path d="M91.0862 366.105L109.106 355.694L91.0421 345.388" stroke="#E2E8F0" stroke-linecap="round" stroke-linejoin="round"/>
<path d="M109.107 376.388V355.681L127.07 345.375V324.522L145.134 334.929V355.72L127.07 366.101L109.085 355.689V334.814L127.07 324.535L109.085 314.124L91.3028 323.663L109.085 334.819" stroke="#E2E8F0" stroke-linecap="round" stroke-linejoin="round"/>
<path d="M343.091 114.981V135.834L325.128 146.562L307.064 135.834L289 125.498V83.8135L307.329 72.5345L307.069 94.2643L289.004 104.605L307.099 114.985V135.838L325.164 125.264L343.126 135.838L361.226 125.502V104.605L343.069 94.2643" stroke="url(#paint0_linear)" stroke-linecap="round" stroke-linejoin="round"/>
<path d="M307.086 114.981L325.106 104.569L307.042 94.264" stroke="url(#paint1_linear)" stroke-linecap="round" stroke-linejoin="round"/>
<path d="M325.107 125.264V104.556L343.07 94.251V73.3979L361.134 83.8046V104.596L343.07 114.976L325.085 104.565V83.69L343.07 73.4111L325.085 63L307.303 72.5387L325.085 83.6944" stroke="url(#paint2_linear)" stroke-linecap="round" stroke-linejoin="round"/>
<path d="M488.091 114.981V135.834L470.128 146.562L452.064 135.834L434 125.498V83.8135L452.329 72.5345L452.069 94.2643L434.004 104.605L452.099 114.985V135.838L470.164 125.264L488.126 135.838L506.226 125.502V104.605L488.069 94.2643" stroke="url(#paint3_linear)" stroke-linecap="round" stroke-linejoin="round"/>
<path d="M452.086 114.981L470.106 104.569L452.042 94.264" stroke="url(#paint4_linear)" stroke-linecap="round" stroke-linejoin="round"/>
<path d="M470.107 125.264V104.556L488.07 94.251V73.3979L506.134 83.8046V104.596L488.07 114.976L470.085 104.565V83.69L488.07 73.4111L470.085 63L452.303 72.5387L470.085 83.6944" stroke="url(#paint5_linear)" stroke-linecap="round" stroke-linejoin="round"/>
<path d="M361.5 125.5L398 146.5L434 125.5" stroke="url(#paint6_linear)" stroke-linecap="round" stroke-linejoin="round"/>
<path d="M235.317 303.105V323.958L217.354 334.687L199.29 323.958L181.226 313.622V271.938L199.554 260.659L199.294 282.389L181.23 292.729L199.325 303.11V323.963L217.389 313.388L235.352 323.963L253.451 313.626V292.729L235.295 282.389" stroke="#E2E8F0" stroke-linecap="round" stroke-linejoin="round"/>
<path d="M199.312 303.105L217.332 292.694L199.268 282.388" stroke="#E2E8F0" stroke-linecap="round" stroke-linejoin="round"/>
<path d="M217.333 313.388V292.681L235.295 282.375V261.522L253.36 271.929V292.72L235.295 303.101L217.311 292.689V271.814L235.295 261.535L217.311 251.124L199.529 260.663L217.311 271.819" stroke="#E2E8F0" stroke-linecap="round" stroke-linejoin="round"/>
<path d="M307.317 303.105V323.958L289.354 334.687L271.29 323.958L253.226 313.622V271.938L271.554 260.659L271.294 282.389L253.23 292.729L271.325 303.11V323.963L289.389 313.388L307.352 323.963L325.451 313.626V292.729L307.295 282.389" stroke="#E2E8F0" stroke-linecap="round" stroke-linejoin="round"/>
<path d="M271.312 303.105L289.332 292.694L271.268 282.388" stroke="#E2E8F0" stroke-linecap="round" stroke-linejoin="round"/>
<path d="M289.333 313.388V292.681L307.295 282.375V261.522L325.36 271.929V292.72L307.295 303.101L289.311 292.689V271.814L307.295 261.535L289.311 251.124L271.529 260.663L289.311 271.819" stroke="#E2E8F0" stroke-linecap="round" stroke-linejoin="round"/>
<path d="M271.317 366.105V386.958L253.354 397.687L235.29 386.958L217.226 376.622V334.938L235.554 323.659L235.294 345.389L217.23 355.729L235.325 366.11V386.963L253.389 376.388L271.352 386.963L289.451 376.626V355.729L271.295 345.389" stroke="#E2E8F0" stroke-linecap="round" stroke-linejoin="round"/>
<path d="M235.312 366.105L253.332 355.694L235.268 345.388" stroke="#E2E8F0" stroke-linecap="round" stroke-linejoin="round"/>
<path d="M253.333 376.388V355.681L271.295 345.375V324.522L289.36 334.929V355.72L271.295 366.101L253.311 355.689V334.814L271.295 324.535L253.311 314.124L235.529 323.663L253.311 334.819" stroke="#E2E8F0" stroke-linecap="round" stroke-linejoin="round"/>
<path d="M379.543 303.105V323.958L361.58 334.687L343.516 323.958L325.451 313.622V271.938L343.78 260.659L343.52 282.389L325.456 292.729L343.551 303.11V323.963L361.615 313.388L379.578 323.963L397.677 313.626V292.729L379.521 282.389" stroke="#E2E8F0" stroke-linecap="round" stroke-linejoin="round"/>
<path d="M343.538 303.105L361.558 292.694L343.494 282.388" stroke="#E2E8F0" stroke-linecap="round" stroke-linejoin="round"/>
<path d="M361.558 313.388V292.681L379.521 282.375V261.522L397.585 271.929V292.72L379.521 303.101L361.536 292.689V271.814L379.521 261.535L361.536 251.124L343.754 260.663L361.536 271.819" stroke="#E2E8F0" stroke-linecap="round" stroke-linejoin="round"/>
<path d="M451.543 303.105V323.958L433.58 334.687L415.516 323.958L397.451 313.622V271.938L415.78 260.659L415.52 282.389L397.456 292.729L415.551 303.11V323.963L433.615 313.388L451.578 323.963L469.677 313.626V292.729L451.521 282.389" stroke="#E2E8F0" stroke-linecap="round" stroke-linejoin="round"/>
<path d="M415.538 303.105L433.558 292.694L415.494 282.388" stroke="#E2E8F0" stroke-linecap="round" stroke-linejoin="round"/>
<path d="M433.558 313.388V292.681L451.521 282.375V261.522L469.585 271.929V292.72L451.521 303.101L433.536 292.689V271.814L451.521 261.535L433.536 251.124L415.754 260.663L433.536 271.819" stroke="#E2E8F0" stroke-linecap="round" stroke-linejoin="round"/>
<path d="M415.543 366.105V386.958L397.58 397.687L379.516 386.958L361.451 376.622V334.938L379.78 323.659L379.52 345.389L361.456 355.729L379.551 366.11V386.963L397.615 376.388L415.578 386.963L433.677 376.626V355.729L415.521 345.389" stroke="#E2E8F0" stroke-linecap="round" stroke-linejoin="round"/>
<path d="M379.538 366.105L397.558 355.694L379.494 345.388" stroke="#E2E8F0" stroke-linecap="round" stroke-linejoin="round"/>
<path d="M397.558 376.388V355.681L415.521 345.375V324.522L433.585 334.929V355.72L415.521 366.101L397.536 355.689V334.814L415.521 324.535L397.536 314.124L379.754 323.663L397.536 334.819" stroke="#E2E8F0" stroke-linecap="round" stroke-linejoin="round"/>
<path d="M523.768 303.105V323.958L505.805 334.687L487.741 323.958L469.677 313.622V271.938L488.006 260.659L487.746 282.389L469.682 292.729L487.777 303.11V323.963L505.841 313.388L523.804 323.963L541.903 313.626V292.729L523.746 282.389" stroke="#E2E8F0" stroke-linecap="round" stroke-linejoin="round"/>
<path d="M487.763 303.105L505.783 292.694L487.719 282.388" stroke="#E2E8F0" stroke-linecap="round" stroke-linejoin="round"/>
<path d="M505.784 313.388V292.681L523.747 282.375V261.522L541.811 271.929V292.72L523.747 303.101L505.762 292.689V271.814L523.747 261.535L505.762 251.124L487.98 260.663L505.762 271.819" stroke="#E2E8F0" stroke-linecap="round" stroke-linejoin="round"/>
<path d="M595.768 303.105V323.958L577.805 334.687L559.741 323.958L541.677 313.622V271.938L560.006 260.659L559.746 282.389L541.682 292.729L559.777 303.11V323.963L577.841 313.388L595.804 323.963L613.903 313.626V292.729L595.746 282.389" stroke="#E2E8F0" stroke-linecap="round" stroke-linejoin="round"/>
<path d="M559.763 303.105L577.783 292.694L559.719 282.388" stroke="#E2E8F0" stroke-linecap="round" stroke-linejoin="round"/>
<path d="M577.784 313.388V292.681L595.747 282.375V261.522L613.811 271.929V292.72L595.747 303.101L577.762 292.689V271.814L595.747 261.535L577.762 251.124L559.98 260.663L577.762 271.819" stroke="#E2E8F0" stroke-linecap="round" stroke-linejoin="round"/>
<path d="M559.768 366.105V386.958L541.805 397.687L523.741 386.958L505.677 376.622V334.938L524.006 323.659L523.746 345.389L505.682 355.729L523.777 366.11V386.963L541.841 376.388L559.804 386.963L577.903 376.626V355.729L559.746 345.389" stroke="#E2E8F0" stroke-linecap="round" stroke-linejoin="round"/>
<path d="M523.763 366.105L541.783 355.694L523.719 345.388" stroke="#E2E8F0" stroke-linecap="round" stroke-linejoin="round"/>
<path d="M541.784 376.388V355.681L559.747 345.375V324.522L577.811 334.929V355.72L559.747 366.101L541.762 355.689V334.814L559.747 324.535L541.762 314.124L523.98 323.663L541.762 334.819" stroke="#E2E8F0" stroke-linecap="round" stroke-linejoin="round"/>
<path d="M91.0911 428.667V449.52L73.1283 460.249L55.0642 449.52L37 439.184V397.5L55.3285 386.221L55.0686 407.951L37.0044 418.291L55.0994 428.672V449.525L73.1635 438.951L91.1264 449.525L109.226 439.189V418.291L91.0691 407.951" stroke="#E2E8F0" stroke-linecap="round" stroke-linejoin="round"/>
<path d="M55.0862 428.667L73.1063 418.256L55.0421 407.951" stroke="#E2E8F0" stroke-linecap="round" stroke-linejoin="round"/>
<path d="M73.107 438.951V418.243L91.0698 407.937V387.084L109.134 397.491V418.282L91.0698 428.663L73.085 418.252V397.377L91.0698 387.098L73.085 376.687L55.3028 386.225L73.085 397.381" stroke="#E2E8F0" stroke-linecap="round" stroke-linejoin="round"/>
<path d="M163.091 428.667V449.52L145.128 460.249L127.064 449.52L109 439.184V397.5L127.329 386.221L127.069 407.951L109.004 418.291L127.099 428.672V449.525L145.164 438.951L163.126 449.525L181.226 439.189V418.291L163.069 407.951" stroke="#E2E8F0" stroke-linecap="round" stroke-linejoin="round"/>
<path d="M127.086 428.667L145.106 418.256L127.042 407.951" stroke="#E2E8F0" stroke-linecap="round" stroke-linejoin="round"/>
<path d="M145.107 438.951V418.243L163.07 407.937V387.084L181.134 397.491V418.282L163.07 428.663L145.085 418.252V397.377L163.07 387.098L145.085 376.687L127.303 386.225L145.085 397.381" stroke="#E2E8F0" stroke-linecap="round" stroke-linejoin="round"/>
<path d="M523.768 428.667V449.52L505.805 460.249L487.741 449.52L469.677 439.184V397.5L488.006 386.221L487.746 407.951L469.682 418.291L487.777 428.672V449.525L505.841 438.951L523.804 449.525L541.903 439.189V418.291L523.746 407.951" stroke="#E2E8F0" stroke-linecap="round" stroke-linejoin="round"/>
<path d="M487.763 428.667L505.783 418.256L487.719 407.951" stroke="#E2E8F0" stroke-linecap="round" stroke-linejoin="round"/>
<path d="M505.784 438.951V418.243L523.747 407.937V387.084L541.811 397.491V418.282L523.747 428.663L505.762 418.252V397.377L523.747 387.098L505.762 376.687L487.98 386.225L505.762 397.381" stroke="#E2E8F0" stroke-linecap="round" stroke-linejoin="round"/>
<path d="M595.768 428.667V449.52L577.805 460.249L559.741 449.52L541.677 439.184V397.5L560.006 386.221L559.746 407.951L541.682 418.291L559.777 428.672V449.525L577.841 438.951L595.804 449.525L613.903 439.189V418.291L595.746 407.951" stroke="#E2E8F0" stroke-linecap="round" stroke-linejoin="round"/>
<path d="M559.763 428.667L577.783 418.256L559.719 407.951" stroke="#E2E8F0" stroke-linecap="round" stroke-linejoin="round"/>
<path d="M577.784 438.951V418.243L595.747 407.937V387.084L613.811 397.491V418.282L595.747 428.663L577.762 418.252V397.377L595.747 387.098L577.762 376.687L559.98 386.225L577.762 397.381" stroke="#E2E8F0" stroke-linecap="round" stroke-linejoin="round"/>
<path d="M163.091 177.543V198.396L145.128 209.124L127.064 198.396L109 188.06V146.376L127.329 135.097L127.069 156.826L109.004 167.167L127.099 177.547V198.4L145.164 187.826L163.126 198.4L181.226 188.064V167.167L163.069 156.826" stroke="#E2E8F0" stroke-linecap="round" stroke-linejoin="round"/>
<path d="M127.086 177.543L145.106 167.132L127.042 156.826" stroke="#E2E8F0" stroke-linecap="round" stroke-linejoin="round"/>
<path d="M145.107 187.826V167.119L163.07 156.813V135.96L181.134 146.367V167.158L163.07 177.538L145.085 167.127V146.252L163.07 135.973L145.085 125.562L127.303 135.101L145.085 146.257" stroke="#E2E8F0" stroke-linecap="round" stroke-linejoin="round"/>
<path d="M127.091 240.543V261.396L109.128 272.124L91.0642 261.396L73 251.06V209.376L91.3285 198.097L91.0686 219.826L73.0044 230.167L91.0994 240.547V261.4L109.164 250.826L127.126 261.4L145.226 251.064V230.167L127.069 219.826" stroke="#E2E8F0" stroke-linecap="round" stroke-linejoin="round"/>
<path d="M91.0862 240.543L109.106 230.132L91.0421 219.826" stroke="#E2E8F0" stroke-linecap="round" stroke-linejoin="round"/>
<path d="M109.107 250.826V230.119L127.07 219.813V198.96L145.134 209.367V230.158L127.07 240.538L109.085 230.127V209.252L127.07 198.973L109.085 188.562L91.3028 198.101L109.085 209.257" stroke="#E2E8F0" stroke-linecap="round" stroke-linejoin="round"/>
<path d="M199.091 239.981V260.834L181.128 271.562L163.064 260.834L145 250.498V208.814L163.329 197.534L163.069 219.264L145.004 229.605L163.099 239.985V260.838L181.164 250.264L199.126 260.838L217.226 250.502V229.605L199.069 219.264" stroke="url(#paint7_linear)" stroke-linecap="round" stroke-linejoin="round"/>
<path d="M163.086 239.981L181.106 229.569L163.042 219.264" stroke="url(#paint8_linear)" stroke-linecap="round" stroke-linejoin="round"/>
<path d="M181.107 250.264V229.556L199.07 219.251V198.398L217.134 208.805V229.596L199.07 239.976L181.085 229.565V208.69L199.07 198.411L181.085 188L163.303 197.539L181.085 208.694" stroke="url(#paint9_linear)" stroke-linecap="round" stroke-linejoin="round"/>
<path d="M343.091 240.981V261.834L325.128 272.562L307.064 261.834L289 251.498V209.814L307.329 198.534L307.069 220.264L289.004 230.605L307.099 240.985V261.838L325.164 251.264L343.126 261.838L361.226 251.502V230.605L343.069 220.264" stroke="url(#paint10_linear)" stroke-linecap="round" stroke-linejoin="round"/>
<path d="M307.086 240.981L325.106 230.569L307.042 220.264" stroke="url(#paint11_linear)" stroke-linecap="round" stroke-linejoin="round"/>
<path d="M325.107 251.264V230.556L343.07 220.251V199.398L361.134 209.805V230.596L343.07 240.976L325.085 230.565V209.69L343.07 199.411L325.085 189L307.303 198.539L325.085 209.694" stroke="url(#paint12_linear)" stroke-linecap="round" stroke-linejoin="round"/>
<path d="M55.0911 449.681V470.534L37.1283 481.262L19.0642 470.534L1.00003 460.198V418.514L19.3285 407.234L19.0686 428.964L1.00443 439.305L19.0994 449.685V470.538L37.1635 459.964L55.1264 470.538L73.2258 460.202V439.305L55.0691 428.964" stroke="url(#paint13_linear)" stroke-linecap="round" stroke-linejoin="round"/>
<path d="M19.0862 449.681L37.1063 439.269L19.0421 428.964" stroke="url(#paint14_linear)" stroke-linecap="round" stroke-linejoin="round"/>
<path d="M37.107 459.964V439.256L55.0698 428.951V408.098L73.1339 418.505V439.296L55.0698 449.676L37.085 439.265V418.39L55.0698 408.111L37.085 397.7L19.3028 407.239L37.085 418.394" stroke="url(#paint15_linear)" stroke-linecap="round" stroke-linejoin="round"/>
<defs>
<linearGradient id="paint0_linear" x1="339.558" y1="72.5345" x2="321.822" y2="146.368" gradientUnits="userSpaceOnUse">
<stop stop-color="#FF2E72"/>
<stop offset="1" stop-color="#4A125E"/>
</linearGradient>
<linearGradient id="paint1_linear" x1="319.687" y1="94.264" x2="314.209" y2="114.646" gradientUnits="userSpaceOnUse">
<stop stop-color="#FF2E72"/>
<stop offset="1" stop-color="#4A125E"/>
</linearGradient>
<linearGradient id="paint2_linear" x1="344.985" y1="63" x2="328.397" y2="124.188" gradientUnits="userSpaceOnUse">
<stop stop-color="#FF2E72"/>
<stop offset="1" stop-color="#4A125E"/>
</linearGradient>
<linearGradient id="paint3_linear" x1="484.558" y1="72.5345" x2="466.822" y2="146.368" gradientUnits="userSpaceOnUse">
<stop stop-color="#FF2E72"/>
<stop offset="1" stop-color="#4A125E"/>
</linearGradient>
<linearGradient id="paint4_linear" x1="464.687" y1="94.264" x2="459.209" y2="114.646" gradientUnits="userSpaceOnUse">
<stop stop-color="#FF2E72"/>
<stop offset="1" stop-color="#4A125E"/>
</linearGradient>
<linearGradient id="paint5_linear" x1="489.985" y1="63" x2="473.397" y2="124.188" gradientUnits="userSpaceOnUse">
<stop stop-color="#FF2E72"/>
<stop offset="1" stop-color="#4A125E"/>
</linearGradient>
<linearGradient id="paint6_linear" x1="412.25" y1="125.5" x2="383.594" y2="144.135" gradientUnits="userSpaceOnUse">
<stop stop-color="#6A1762"/>
<stop offset="0.462833" stop-color="#FF2E72"/>
<stop offset="0.984375" stop-color="#911D66"/>
</linearGradient>
<linearGradient id="paint7_linear" x1="195.558" y1="197.534" x2="177.822" y2="271.368" gradientUnits="userSpaceOnUse">
<stop stop-color="#FF2E72"/>
<stop offset="1" stop-color="#4A125E"/>
</linearGradient>
<linearGradient id="paint8_linear" x1="175.687" y1="219.264" x2="170.209" y2="239.646" gradientUnits="userSpaceOnUse">
<stop stop-color="#FF2E72"/>
<stop offset="1" stop-color="#4A125E"/>
</linearGradient>
<linearGradient id="paint9_linear" x1="200.985" y1="188" x2="184.397" y2="249.188" gradientUnits="userSpaceOnUse">
<stop stop-color="#FF2E72"/>
<stop offset="1" stop-color="#4A125E"/>
</linearGradient>
<linearGradient id="paint10_linear" x1="339.558" y1="198.534" x2="321.822" y2="272.368" gradientUnits="userSpaceOnUse">
<stop stop-color="#FF2E72"/>
<stop offset="1" stop-color="#4A125E"/>
</linearGradient>
<linearGradient id="paint11_linear" x1="319.687" y1="220.264" x2="314.209" y2="240.646" gradientUnits="userSpaceOnUse">
<stop stop-color="#FF2E72"/>
<stop offset="1" stop-color="#4A125E"/>
</linearGradient>
<linearGradient id="paint12_linear" x1="344.985" y1="189" x2="328.397" y2="250.188" gradientUnits="userSpaceOnUse">
<stop stop-color="#FF2E72"/>
<stop offset="1" stop-color="#4A125E"/>
</linearGradient>
<linearGradient id="paint13_linear" x1="51.558" y1="407.234" x2="33.8216" y2="481.068" gradientUnits="userSpaceOnUse">
<stop stop-color="#FF2E72"/>
<stop offset="1" stop-color="#4A125E"/>
</linearGradient>
<linearGradient id="paint14_linear" x1="31.687" y1="428.964" x2="26.2086" y2="449.346" gradientUnits="userSpaceOnUse">
<stop stop-color="#FF2E72"/>
<stop offset="1" stop-color="#4A125E"/>
</linearGradient>
<linearGradient id="paint15_linear" x1="56.9846" y1="397.7" x2="40.3972" y2="458.888" gradientUnits="userSpaceOnUse">
<stop stop-color="#FF2E72"/>
<stop offset="1" stop-color="#4A125E"/>
</linearGradient>
</defs>
</svg>
