<?xml version="1.0" standalone="no"?>
<!DOCTYPE svg PUBLIC "-//W3C//DTD SVG 20010904//EN"
 "http://www.w3.org/TR/2001/REC-SVG-20010904/DTD/svg10.dtd">
<svg version="1.0" xmlns="http://www.w3.org/2000/svg"
 width="656.000000pt" height="656.000000pt" viewBox="0 0 656.000000 656.000000"
 preserveAspectRatio="xMidYMid meet">
<metadata>
Created by potrace 1.14, written by Peter Selinger 2001-2017
</metadata>
<g transform="translate(0.000000,656.000000) scale(0.100000,-0.100000)"
fill="#000000" stroke="none">
<path d="M3095 6474 c-325 -21 -688 -101 -982 -216 -139 -54 -400 -186 -531
-268 -744 -466 -1272 -1234 -1441 -2095 -42 -218 -55 -352 -55 -605 -1 -305
24 -523 90 -785 291 -1150 1183 -2042 2331 -2330 1272 -319 2619 180 3383
1254 138 195 305 508 383 721 210 568 259 1155 146 1740 -245 1274 -1260 2288
-2531 2529 -231 44 -584 68 -793 55z m493 -429 c524 -59 1023 -267 1442 -601
109 -87 327 -305 414 -414 348 -435 555 -949 607 -1507 15 -156 6 -488 -16
-633 -165 -1073 -892 -1934 -1909 -2259 -293 -94 -504 -125 -841 -125 -263 -1
-344 7 -565 51 -897 180 -1667 817 -2013 1668 -133 326 -194 620 -204 975 -8
294 14 499 84 775 93 368 283 746 529 1055 87 109 305 327 414 414 436 348
947 554 1510 609 101 10 429 5 548 -8z"/>
<path d="M2570 4575 l0 -195 528 0 c290 0 566 -5 614 -10 319 -37 461 -187
475 -500 4 -85 1 -133 -11 -183 -44 -189 -154 -296 -358 -349 -79 -20 -110
-21 -670 -25 l-588 -5 0 -759 0 -759 210 0 210 0 0 565 0 565 383 0 c428 0
503 7 670 64 188 64 351 189 454 347 94 144 134 297 134 504 0 257 -61 444
-200 614 -84 103 -257 214 -416 266 -155 51 -221 55 -852 55 l-583 0 0 -195z"/>
</g>
</svg>
